<?xml version="1.0" ?><!DOCTYPE svg  PUBLIC '-//W3C//DTD SVG 1.1//EN'  'http://www.w3.org/Graphics/SVG/1.1/DTD/svg11.dtd'><svg enable-background="new 0 0 128 128" height="128px" version="1.1" viewBox="0 0 128 128" width="128px" xml:space="preserve" xmlns="http://www.w3.org/2000/svg" xmlns:xlink="http://www.w3.org/1999/xlink"><g id="Layer_2"/><g id="Layer_1"><g><path d="    M71.033,33.262c4.485-2.957,9.644-6.253,11.57-7.096c3.602-1.575,6.827-0.521,8.678,2.972c1.365,2.577,1.011,9.927,1.011,9.927" fill="none" stroke="#231F20" stroke-linecap="round" stroke-linejoin="round" stroke-miterlimit="10" stroke-width="5"/><path d="    M56.227,33.173c0,0-7.747-5.395-11.436-7.008c-3.603-1.575-6.827-0.521-8.679,2.972c-1.365,2.577-1.011,9.927-1.011,9.927" fill="none" stroke="#231F20" stroke-linecap="round" stroke-linejoin="round" stroke-miterlimit="10" stroke-width="5"/><path d="    M97.95,96.484c0,3.349-2.714,6.062-6.062,6.062H36.112c-3.349,0-6.062-2.714-6.062-6.062v-38.02h67.9V96.484z" fill="none" stroke="#231F20" stroke-linecap="round" stroke-linejoin="round" stroke-miterlimit="10" stroke-width="5"/><path d="    M104.012,52.402c0,3.349-2.713,6.062-6.062,6.062h-67.9c-3.349,0-6.062-2.713-6.062-6.062v-7.275c0-3.348,2.713-6.062,6.062-6.062    h67.9c3.349,0,6.062,2.714,6.062,6.062V52.402z" fill="none" stroke="#231F20" stroke-linecap="round" stroke-linejoin="round" stroke-miterlimit="10" stroke-width="5"/><path d="    M56.055,39.064c-0.308-0.852-0.477-1.769-0.477-2.727c0-4.437,3.597-8.033,8.034-8.033c4.437,0,8.032,3.596,8.032,8.033    c0,0.958-0.169,1.876-0.475,2.728" fill="none" stroke="#231F20" stroke-linecap="round" stroke-linejoin="round" stroke-miterlimit="10" stroke-width="5"/><rect fill="none" height="63.482" stroke="#231F20" stroke-linecap="round" stroke-linejoin="round" stroke-miterlimit="10" stroke-width="5" width="12.176" x="57.912" y="39.065"/></g></g></svg>